{
    "asset": {
        "version": "2.0",
        "generator": "Open Asset Import Library (assimp v5.2.cf7d3637)"
    },
    "extensionsUsed": [
        "KHR_materials_volume",
        "FB_ngon_encoding"
    ],
    "accessors": [
        {
            "bufferView": 0,
            "byteOffset": 0,
            "componentType": 5126,
            "count": 882,
            "type": "VEC3",
            "max": [
                1.0,
                2.8661603927612306,
                1.7976746559143067
            ],
            "min": [
                -1.0,
                -0.46829622983932497,
                -1.3419610261917115
            ]
        },
        {
            "bufferView": 1,
            "byteOffset": 0,
            "componentType": 5126,
            "count": 882,
            "type": "VEC3",
            "max": [
                0.9996692538261414,
                1.0,
                1.0
            ],
            "min": [
                -0.9996692538261414,
                -1.0,
                -1.0
            ]
        },
        {
            "bufferView": 2,
            "byteOffset": 0,
            "componentType": 5126,
            "count": 882,
            "type": "VEC2",
            "max": [
                0.875,
                1.0
            ],
            "min": [
                0.125,
                0.0
            ]
        },
        {
            "bufferView": 3,
            "byteOffset": 0,
            "componentType": 5125,
            "count": 882,
            "type": "SCALAR",
            "max": [
                881
            ],
            "min": [
                0
            ]
        }
    ],
    "buffers": [
        {
            "byteLength": 31752,
            "uri": "result.bin"
        }
    ],
    "bufferViews": [
        {
            "buffer": 0,
            "byteOffset": 0,
            "byteLength": 10584,
            "target": 34962
        },
        {
            "buffer": 0,
            "byteOffset": 10584,
            "byteLength": 10584,
            "target": 34962
        },
        {
            "buffer": 0,
            "byteOffset": 21168,
            "byteLength": 7056,
            "target": 34962
        },
        {
            "buffer": 0,
            "byteOffset": 28224,
            "byteLength": 3528,
            "target": 34963
        }
    ],
    "materials": [
        {
            "name": "Material",
            "pbrMetallicRoughness": {
                "baseColorFactor": [
                    0.04696183651685715,
                    0.008599183522164822,
                    0.002194257453083992,
                    1.0
                ],
                "metallicFactor": 0.0,
                "roughnessFactor": 0.5
            },
            "doubleSided": true
        },
        {
            "name": "material"
        }
    ],
    "meshes": [
        {
            "name": "Cube",
            "primitives": [
                {
                    "mode": 4,
                    "material": 0,
                    "indices": 3,
                    "attributes": {
                        "POSITION": 0,
                        "NORMAL": 1,
                        "TEXCOORD_0": 2
                    }
                }
            ]
        }
    ],
    "nodes": [
        {
            "name": "Cube",
            "matrix": [
                15.300984382629395,
                0.0,
                0.0,
                0.0,
                0.0,
                10.639650344848633,
                0.0,
                0.0,
                0.0,
                0.0,
                22.514760971069337,
                0.0,
                0.0,
                0.0,
                0.0,
                1.0
            ],
            "mesh": 0
        }
    ],
    "scenes": [
        {
            "nodes": [
                0
            ]
        }
    ],
    "scene": 0
}